<?xml version="1.0" encoding="UTF-8"?>
<svg width="317px" height="195px" viewBox="0 0 317 195" version="1.1" xmlns="http://www.w3.org/2000/svg" xmlns:xlink="http://www.w3.org/1999/xlink">
    <title>Group 25</title>
    <defs>
        <linearGradient x1="0%" y1="49.9992541%" x2="100%" y2="49.9992541%" id="linearGradient-1">
            <stop stop-color="#2AB06D" offset="0%"></stop>
            <stop stop-color="#15CEFF" offset="34%"></stop>
            <stop stop-color="#2A61FF" offset="67%"></stop>
            <stop stop-color="#9E00D4" offset="97%"></stop>
        </linearGradient>
    </defs>
    <g id="CFCN-P360" stroke="none" stroke-width="1" fill="none" fill-rule="evenodd">
        <g id="Group-25" transform="translate(1.000000, 1.000000)">
            <rect id="Baser1_" stroke="#FF4343" x="0" y="0" width="315" height="193"></rect>
            <path d="M56.7138572,168 C50.3285093,168 43.5195711,165.669665 36.4508098,161.072551 C30.4103179,157.142759 24.1682663,151.554193 17.8978704,144.461502 C7.22308038,132.386131 0.0708608278,119.967566 0,119.848931 L0.12440012,119.719703 C0.195260948,119.842576 7.33960708,132.246311 18.0017996,144.294141 C27.8372825,155.418311 42.7621476,168.516911 58.0145471,167.7479 C73.5157469,166.972534 82.9859028,152.547763 93.9504349,135.843501 C102.334058,123.071148 111.835708,108.595533 125.636248,98.1344493 C129.730429,95.0245118 134.276545,93.8402781 139.513947,94.5097197 C144.175015,95.1071327 149.276995,97.1705381 155.134823,100.818571 C166.00015,107.597726 177.810288,118.933745 189.237777,129.905384 C205.686938,145.694461 222.695111,162.027988 236.968056,164.771427 C248.060138,166.902624 255.598155,162.042817 260.685963,149.478077 C265.230504,138.250101 267.257124,122.32756 269.401845,105.462292 C271.82371,86.42134 274.32746,66.7321309 280.686038,51.5891927 C284.131449,43.3864148 288.346881,37.3402557 293.57641,33.1096391 C299.407469,28.3917707 306.614802,26 315,26 L315,26.2118486 C299.202759,26.2118486 288.02407,34.5459726 280.829334,51.6929986 C274.484928,66.8041594 271.982753,86.4743022 269.562463,105.502544 C267.416167,122.384759 265.387972,138.339077 260.830834,149.584001 C258.386923,155.617449 255.421791,159.807815 251.762223,162.392367 C247.690087,165.269272 242.844781,166.118784 236.960183,164.985394 C222.649445,162.231363 205.62395,145.889361 189.160618,130.083337 C177.72368,119.111698 165.913542,107.773561 155.068686,101.011353 C142.918416,93.4356473 133.315987,92.5543571 125.713407,98.3187576 C111.936488,108.762894 102.444286,123.225798 94.0622376,135.983321 C83.0740852,152.71936 73.5913317,167.180146 58.0145471,167.97246 C57.5878074,167.987289 57.1516197,168 56.7138572,168 Z" id="Line1_" fill="url(#linearGradient-1)" fill-rule="nonzero"></path>
        </g>
    </g>
</svg>